<svg xmlns="http://www.w3.org/2000/svg" viewBox="0 0 900 600" width="900" height="600" role="img" aria-label="الوحدة مول">
<linearGradient id="s" x1="0" y1="0" x2="0" y2="1"><stop offset="0" stop-color="#8fc4e8"/><stop offset="1" stop-color="#cfe6f5"/></linearGradient><rect width="900" height="600" fill="url(#s)"/><rect x="40" y="70" width="150" height="360" fill="#3f5d86"/><rect x="40" y="70" width="150" height="360" fill="none" stroke="#33507a" stroke-width="2"/><line x1="55" y1="80" x2="55" y2="425" stroke="#5b7aa6" stroke-width="1"/><line x1="72" y1="80" x2="72" y2="425" stroke="#5b7aa6" stroke-width="1"/><line x1="89" y1="80" x2="89" y2="425" stroke="#5b7aa6" stroke-width="1"/><line x1="106" y1="80" x2="106" y2="425" stroke="#5b7aa6" stroke-width="1"/><line x1="123" y1="80" x2="123" y2="425" stroke="#5b7aa6" stroke-width="1"/><line x1="140" y1="80" x2="140" y2="425" stroke="#5b7aa6" stroke-width="1"/><line x1="157" y1="80" x2="157" y2="425" stroke="#5b7aa6" stroke-width="1"/><line x1="174" y1="80" x2="174" y2="425" stroke="#5b7aa6" stroke-width="1"/><line x1="191" y1="80" x2="191" y2="425" stroke="#5b7aa6" stroke-width="1"/><line x1="45" y1="90" x2="185" y2="90" stroke="#6d8cb8" stroke-width="0.8" opacity="0.6"/><line x1="45" y1="110" x2="185" y2="110" stroke="#6d8cb8" stroke-width="0.8" opacity="0.6"/><line x1="45" y1="130" x2="185" y2="130" stroke="#6d8cb8" stroke-width="0.8" opacity="0.6"/><line x1="45" y1="150" x2="185" y2="150" stroke="#6d8cb8" stroke-width="0.8" opacity="0.6"/><line x1="45" y1="170" x2="185" y2="170" stroke="#6d8cb8" stroke-width="0.8" opacity="0.6"/><line x1="45" y1="190" x2="185" y2="190" stroke="#6d8cb8" stroke-width="0.8" opacity="0.6"/><line x1="45" y1="210" x2="185" y2="210" stroke="#6d8cb8" stroke-width="0.8" opacity="0.6"/><line x1="45" y1="230" x2="185" y2="230" stroke="#6d8cb8" stroke-width="0.8" opacity="0.6"/><line x1="45" y1="250" x2="185" y2="250" stroke="#6d8cb8" stroke-width="0.8" opacity="0.6"/><line x1="45" y1="270" x2="185" y2="270" stroke="#6d8cb8" stroke-width="0.8" opacity="0.6"/><line x1="45" y1="290" x2="185" y2="290" stroke="#6d8cb8" stroke-width="0.8" opacity="0.6"/><line x1="45" y1="310" x2="185" y2="310" stroke="#6d8cb8" stroke-width="0.8" opacity="0.6"/><line x1="45" y1="330" x2="185" y2="330" stroke="#6d8cb8" stroke-width="0.8" opacity="0.6"/><line x1="45" y1="350" x2="185" y2="350" stroke="#6d8cb8" stroke-width="0.8" opacity="0.6"/><line x1="45" y1="370" x2="185" y2="370" stroke="#6d8cb8" stroke-width="0.8" opacity="0.6"/><line x1="45" y1="390" x2="185" y2="390" stroke="#6d8cb8" stroke-width="0.8" opacity="0.6"/><line x1="45" y1="410" x2="185" y2="410" stroke="#6d8cb8" stroke-width="0.8" opacity="0.6"/><rect x="40" y="56" width="150" height="16" fill="#2c4567"/><path d="M40,70 L115,44 L190,70 Z" fill="#33507a"/><rect x="150" y="120" width="140" height="300" fill="#4a6d94"/><rect x="160" y="130" width="16" height="16" fill="#a9cbe4" opacity="0.85"/><rect x="182" y="130" width="16" height="16" fill="#a9cbe4" opacity="0.85"/><rect x="204" y="130" width="16" height="16" fill="#a9cbe4" opacity="0.85"/><rect x="226" y="130" width="16" height="16" fill="#a9cbe4" opacity="0.85"/><rect x="248" y="130" width="16" height="16" fill="#a9cbe4" opacity="0.85"/><rect x="270" y="130" width="16" height="16" fill="#a9cbe4" opacity="0.85"/><rect x="160" y="154" width="16" height="16" fill="#a9cbe4" opacity="0.85"/><rect x="182" y="154" width="16" height="16" fill="#a9cbe4" opacity="0.85"/><rect x="204" y="154" width="16" height="16" fill="#a9cbe4" opacity="0.85"/><rect x="226" y="154" width="16" height="16" fill="#a9cbe4" opacity="0.85"/><rect x="248" y="154" width="16" height="16" fill="#a9cbe4" opacity="0.85"/><rect x="270" y="154" width="16" height="16" fill="#a9cbe4" opacity="0.85"/><rect x="160" y="178" width="16" height="16" fill="#a9cbe4" opacity="0.85"/><rect x="182" y="178" width="16" height="16" fill="#a9cbe4" opacity="0.85"/><rect x="204" y="178" width="16" height="16" fill="#a9cbe4" opacity="0.85"/><rect x="226" y="178" width="16" height="16" fill="#a9cbe4" opacity="0.85"/><rect x="248" y="178" width="16" height="16" fill="#a9cbe4" opacity="0.85"/><rect x="270" y="178" width="16" height="16" fill="#a9cbe4" opacity="0.85"/><rect x="160" y="202" width="16" height="16" fill="#a9cbe4" opacity="0.85"/><rect x="182" y="202" width="16" height="16" fill="#a9cbe4" opacity="0.85"/><rect x="204" y="202" width="16" height="16" fill="#a9cbe4" opacity="0.85"/><rect x="226" y="202" width="16" height="16" fill="#a9cbe4" opacity="0.85"/><rect x="248" y="202" width="16" height="16" fill="#a9cbe4" opacity="0.85"/><rect x="270" y="202" width="16" height="16" fill="#a9cbe4" opacity="0.85"/><rect x="160" y="226" width="16" height="16" fill="#a9cbe4" opacity="0.85"/><rect x="182" y="226" width="16" height="16" fill="#a9cbe4" opacity="0.85"/><rect x="204" y="226" width="16" height="16" fill="#a9cbe4" opacity="0.85"/><rect x="226" y="226" width="16" height="16" fill="#a9cbe4" opacity="0.85"/><rect x="248" y="226" width="16" height="16" fill="#a9cbe4" opacity="0.85"/><rect x="270" y="226" width="16" height="16" fill="#a9cbe4" opacity="0.85"/><rect x="160" y="250" width="16" height="16" fill="#a9cbe4" opacity="0.85"/><rect x="182" y="250" width="16" height="16" fill="#a9cbe4" opacity="0.85"/><rect x="204" y="250" width="16" height="16" fill="#a9cbe4" opacity="0.85"/><rect x="226" y="250" width="16" height="16" fill="#a9cbe4" opacity="0.85"/><rect x="248" y="250" width="16" height="16" fill="#a9cbe4" opacity="0.85"/><rect x="270" y="250" width="16" height="16" fill="#a9cbe4" opacity="0.85"/><rect x="160" y="274" width="16" height="16" fill="#a9cbe4" opacity="0.85"/><rect x="182" y="274" width="16" height="16" fill="#a9cbe4" opacity="0.85"/><rect x="204" y="274" width="16" height="16" fill="#a9cbe4" opacity="0.85"/><rect x="226" y="274" width="16" height="16" fill="#a9cbe4" opacity="0.85"/><rect x="248" y="274" width="16" height="16" fill="#a9cbe4" opacity="0.85"/><rect x="270" y="274" width="16" height="16" fill="#a9cbe4" opacity="0.85"/><rect x="160" y="298" width="16" height="16" fill="#a9cbe4" opacity="0.85"/><rect x="182" y="298" width="16" height="16" fill="#a9cbe4" opacity="0.85"/><rect x="204" y="298" width="16" height="16" fill="#a9cbe4" opacity="0.85"/><rect x="226" y="298" width="16" height="16" fill="#a9cbe4" opacity="0.85"/><rect x="248" y="298" width="16" height="16" fill="#a9cbe4" opacity="0.85"/><rect x="270" y="298" width="16" height="16" fill="#a9cbe4" opacity="0.85"/><rect x="160" y="322" width="16" height="16" fill="#a9cbe4" opacity="0.85"/><rect x="182" y="322" width="16" height="16" fill="#a9cbe4" opacity="0.85"/><rect x="204" y="322" width="16" height="16" fill="#a9cbe4" opacity="0.85"/><rect x="226" y="322" width="16" height="16" fill="#a9cbe4" opacity="0.85"/><rect x="248" y="322" width="16" height="16" fill="#a9cbe4" opacity="0.85"/><rect x="270" y="322" width="16" height="16" fill="#a9cbe4" opacity="0.85"/><rect x="160" y="346" width="16" height="16" fill="#a9cbe4" opacity="0.85"/><rect x="182" y="346" width="16" height="16" fill="#a9cbe4" opacity="0.85"/><rect x="204" y="346" width="16" height="16" fill="#a9cbe4" opacity="0.85"/><rect x="226" y="346" width="16" height="16" fill="#a9cbe4" opacity="0.85"/><rect x="248" y="346" width="16" height="16" fill="#a9cbe4" opacity="0.85"/><rect x="270" y="346" width="16" height="16" fill="#a9cbe4" opacity="0.85"/><rect x="160" y="370" width="16" height="16" fill="#a9cbe4" opacity="0.85"/><rect x="182" y="370" width="16" height="16" fill="#a9cbe4" opacity="0.85"/><rect x="204" y="370" width="16" height="16" fill="#a9cbe4" opacity="0.85"/><rect x="226" y="370" width="16" height="16" fill="#a9cbe4" opacity="0.85"/><rect x="248" y="370" width="16" height="16" fill="#a9cbe4" opacity="0.85"/><rect x="270" y="370" width="16" height="16" fill="#a9cbe4" opacity="0.85"/><rect x="250" y="250" width="560" height="180" fill="#d8c79c"/><rect x="250" y="250" width="560" height="180" fill="none" stroke="#b6a374" stroke-width="2"/><path d="M300,250 L340,250 L320,150 Z" fill="#3f6f9e"/><path d="M360,250 L400,250 L392,175 Z" fill="#4a79a6"/><path d="M630,250 L660,250 L648,185 Z" fill="#4a79a6"/><path d="M470,250 L470,180 Q535,120 600,180 L600,250 Z" fill="#cbb98a"/><path d="M470,250 L470,180 Q535,120 600,180 L600,250 Z" fill="none" stroke="#a8955f" stroke-width="2"/><rect x="500" y="300" width="70" height="130" rx="6" fill="#254a6b"/><path d="M500,300 q35,-26 70,0" fill="#254a6b"/><text x="535" y="360" font-family="Arial" font-size="13" fill="#e9eef2" text-anchor="middle" opacity="0.85">AL WAHDA</text><rect x="270" y="330" width="20" height="26" rx="3" fill="#254a6b" opacity="0.8"/><rect x="300" y="330" width="20" height="26" rx="3" fill="#254a6b" opacity="0.8"/><rect x="330" y="330" width="20" height="26" rx="3" fill="#254a6b" opacity="0.8"/><rect x="360" y="330" width="20" height="26" rx="3" fill="#254a6b" opacity="0.8"/><rect x="390" y="330" width="20" height="26" rx="3" fill="#254a6b" opacity="0.8"/><rect x="420" y="330" width="20" height="26" rx="3" fill="#254a6b" opacity="0.8"/><rect x="270" y="364" width="20" height="26" rx="3" fill="#254a6b" opacity="0.8"/><rect x="300" y="364" width="20" height="26" rx="3" fill="#254a6b" opacity="0.8"/><rect x="330" y="364" width="20" height="26" rx="3" fill="#254a6b" opacity="0.8"/><rect x="360" y="364" width="20" height="26" rx="3" fill="#254a6b" opacity="0.8"/><rect x="390" y="364" width="20" height="26" rx="3" fill="#254a6b" opacity="0.8"/><rect x="420" y="364" width="20" height="26" rx="3" fill="#254a6b" opacity="0.8"/><rect x="686" y="84" width="52" height="18" fill="#c9b48a"/><rect x="688" y="86" width="3" height="14" fill="#8a7a54"/><rect x="700" y="86" width="3" height="14" fill="#8a7a54"/><rect x="712" y="86" width="3" height="14" fill="#8a7a54"/><rect x="724" y="86" width="3" height="14" fill="#8a7a54"/><rect x="736" y="86" width="3" height="14" fill="#8a7a54"/><rect x="690" y="100" width="44" height="150" fill="#d8c79c"/><rect x="690" y="100" width="44" height="150" fill="none" stroke="#b6a374" stroke-width="1.5"/><rect x="756" y="114" width="48" height="18" fill="#c9b48a"/><rect x="758" y="116" width="3" height="14" fill="#8a7a54"/><rect x="769" y="116" width="3" height="14" fill="#8a7a54"/><rect x="780" y="116" width="3" height="14" fill="#8a7a54"/><rect x="791" y="116" width="3" height="14" fill="#8a7a54"/><rect x="802" y="116" width="3" height="14" fill="#8a7a54"/><rect x="760" y="130" width="40" height="120" fill="#d8c79c"/><rect x="760" y="130" width="40" height="120" fill="none" stroke="#b6a374" stroke-width="1.5"/><line x1="430" y1="235" x2="430" y2="300" stroke="#8a8f98" stroke-width="1.5"/><path d="M430,237 l14,4 l-14,4 Z" fill="#2e8b57"/><line x1="464" y1="235" x2="464" y2="300" stroke="#8a8f98" stroke-width="1.5"/><path d="M464,237 l14,4 l-14,4 Z" fill="#2e8b57"/><line x1="498" y1="235" x2="498" y2="300" stroke="#8a8f98" stroke-width="1.5"/><path d="M498,237 l14,4 l-14,4 Z" fill="#2e8b57"/><line x1="532" y1="235" x2="532" y2="300" stroke="#8a8f98" stroke-width="1.5"/><path d="M532,237 l14,4 l-14,4 Z" fill="#2e8b57"/><line x1="566" y1="235" x2="566" y2="300" stroke="#8a8f98" stroke-width="1.5"/><path d="M566,237 l14,4 l-14,4 Z" fill="#2e8b57"/><line x1="600" y1="235" x2="600" y2="300" stroke="#8a8f98" stroke-width="1.5"/><path d="M600,237 l14,4 l-14,4 Z" fill="#2e8b57"/><line x1="634" y1="235" x2="634" y2="300" stroke="#8a8f98" stroke-width="1.5"/><path d="M634,237 l14,4 l-14,4 Z" fill="#2e8b57"/><rect x="0" y="426" width="900" height="8" fill="#c8b98f"/><g transform="translate(350,430)"><rect x="-3" y="-46" width="6" height="46" fill="#6b5636"/><path d="M0,-46 q-30,-6 -40,10 M0,-46 q30,-6 40,10 M0,-46 q-20,-24 -34,-24 M0,-46 q20,-24 34,-24 M0,-48 q0,-26 0,-30" stroke="#3f7a3f" stroke-width="4" fill="none" stroke-linecap="round"/></g><g transform="translate(445,430)"><rect x="-3" y="-46" width="6" height="46" fill="#6b5636"/><path d="M0,-46 q-30,-6 -40,10 M0,-46 q30,-6 40,10 M0,-46 q-20,-24 -34,-24 M0,-46 q20,-24 34,-24 M0,-48 q0,-26 0,-30" stroke="#3f7a3f" stroke-width="4" fill="none" stroke-linecap="round"/></g><g transform="translate(640,430)"><rect x="-3" y="-46" width="6" height="46" fill="#6b5636"/><path d="M0,-46 q-30,-6 -40,10 M0,-46 q30,-6 40,10 M0,-46 q-20,-24 -34,-24 M0,-46 q20,-24 34,-24 M0,-48 q0,-26 0,-30" stroke="#3f7a3f" stroke-width="4" fill="none" stroke-linecap="round"/></g><rect x="0" y="430" width="900" height="170" fill="#7f858c"/><rect x="0" y="470" width="900" height="6" fill="#e8ebee" opacity="0.5"/><rect x="10" y="500" width="26" height="1.5" fill="#eceff2" opacity="0.8"/><rect x="56" y="500" width="26" height="1.5" fill="#eceff2" opacity="0.8"/><rect x="102" y="500" width="26" height="1.5" fill="#eceff2" opacity="0.8"/><rect x="148" y="500" width="26" height="1.5" fill="#eceff2" opacity="0.8"/><rect x="194" y="500" width="26" height="1.5" fill="#eceff2" opacity="0.8"/><rect x="240" y="500" width="26" height="1.5" fill="#eceff2" opacity="0.8"/><rect x="286" y="500" width="26" height="1.5" fill="#eceff2" opacity="0.8"/><rect x="332" y="500" width="26" height="1.5" fill="#eceff2" opacity="0.8"/><rect x="378" y="500" width="26" height="1.5" fill="#eceff2" opacity="0.8"/><rect x="424" y="500" width="26" height="1.5" fill="#eceff2" opacity="0.8"/><rect x="470" y="500" width="26" height="1.5" fill="#eceff2" opacity="0.8"/><rect x="516" y="500" width="26" height="1.5" fill="#eceff2" opacity="0.8"/><rect x="562" y="500" width="26" height="1.5" fill="#eceff2" opacity="0.8"/><rect x="608" y="500" width="26" height="1.5" fill="#eceff2" opacity="0.8"/><rect x="654" y="500" width="26" height="1.5" fill="#eceff2" opacity="0.8"/><rect x="700" y="500" width="26" height="1.5" fill="#eceff2" opacity="0.8"/><rect x="746" y="500" width="26" height="1.5" fill="#eceff2" opacity="0.8"/><rect x="792" y="500" width="26" height="1.5" fill="#eceff2" opacity="0.8"/><rect x="838" y="500" width="26" height="1.5" fill="#eceff2" opacity="0.8"/><rect x="884" y="500" width="26" height="1.5" fill="#eceff2" opacity="0.8"/><g transform="translate(60,452)"><rect width="46" height="17" rx="5" fill="#d9dde2"/><rect x="8" y="-8" width="30" height="12" rx="4" fill="#d9dde2"/><circle cx="12" cy="17" r="4" fill="#222"/><circle cx="36" cy="17" r="4" fill="#222"/></g><g transform="translate(180,452)"><rect width="46" height="17" rx="5" fill="#c9ccd1"/><rect x="8" y="-8" width="30" height="12" rx="4" fill="#c9ccd1"/><circle cx="12" cy="17" r="4" fill="#222"/><circle cx="36" cy="17" r="4" fill="#222"/></g><g transform="translate(330,452)"><rect width="46" height="17" rx="5" fill="#3a4048"/><rect x="8" y="-8" width="30" height="12" rx="4" fill="#3a4048"/><circle cx="12" cy="17" r="4" fill="#222"/><circle cx="36" cy="17" r="4" fill="#222"/></g><g transform="translate(470,452)"><rect width="46" height="17" rx="5" fill="#8a8f98"/><rect x="8" y="-8" width="30" height="12" rx="4" fill="#8a8f98"/><circle cx="12" cy="17" r="4" fill="#222"/><circle cx="36" cy="17" r="4" fill="#222"/></g><g transform="translate(650,452)"><rect width="46" height="17" rx="5" fill="#d9dde2"/><rect x="8" y="-8" width="30" height="12" rx="4" fill="#d9dde2"/><circle cx="12" cy="17" r="4" fill="#222"/><circle cx="36" cy="17" r="4" fill="#222"/></g><g transform="translate(790,452)"><rect width="46" height="17" rx="5" fill="#5a6068"/><rect x="8" y="-8" width="30" height="12" rx="4" fill="#5a6068"/><circle cx="12" cy="17" r="4" fill="#222"/><circle cx="36" cy="17" r="4" fill="#222"/></g>
</svg>