<svg xmlns="http://www.w3.org/2000/svg" viewBox="0 0 900 600" width="900" height="600" role="img" aria-label="مول العائلة">
<rect width="900" height="230" fill="#c9d2d8"/><rect y="150" width="900" height="90" fill="#d7dde1"/><rect width="900" height="150" fill="#b9c4cc" opacity="0.5"/><rect x="0" y="95" width="16" height="60" fill="#aeb8c0" opacity="0.5"/><rect x="22" y="61" width="16" height="94" fill="#aeb8c0" opacity="0.5"/><rect x="44" y="67" width="16" height="88" fill="#aeb8c0" opacity="0.5"/><rect x="66" y="73" width="16" height="82" fill="#aeb8c0" opacity="0.5"/><rect x="88" y="79" width="16" height="76" fill="#aeb8c0" opacity="0.5"/><rect x="110" y="85" width="16" height="70" fill="#aeb8c0" opacity="0.5"/><rect x="132" y="91" width="16" height="64" fill="#aeb8c0" opacity="0.5"/><rect x="154" y="57" width="16" height="98" fill="#aeb8c0" opacity="0.5"/><rect x="176" y="63" width="16" height="92" fill="#aeb8c0" opacity="0.5"/><rect x="198" y="69" width="16" height="86" fill="#aeb8c0" opacity="0.5"/><rect x="220" y="75" width="16" height="80" fill="#aeb8c0" opacity="0.5"/><rect x="242" y="81" width="16" height="74" fill="#aeb8c0" opacity="0.5"/><rect x="264" y="87" width="16" height="68" fill="#aeb8c0" opacity="0.5"/><rect x="286" y="93" width="16" height="62" fill="#aeb8c0" opacity="0.5"/><rect x="308" y="59" width="16" height="96" fill="#aeb8c0" opacity="0.5"/><rect x="330" y="65" width="16" height="90" fill="#aeb8c0" opacity="0.5"/><rect x="352" y="71" width="16" height="84" fill="#aeb8c0" opacity="0.5"/><rect x="374" y="77" width="16" height="78" fill="#aeb8c0" opacity="0.5"/><rect x="396" y="83" width="16" height="72" fill="#aeb8c0" opacity="0.5"/><rect x="418" y="89" width="16" height="66" fill="#aeb8c0" opacity="0.5"/><rect x="440" y="95" width="16" height="60" fill="#aeb8c0" opacity="0.5"/><rect x="462" y="61" width="16" height="94" fill="#aeb8c0" opacity="0.5"/><rect x="484" y="67" width="16" height="88" fill="#aeb8c0" opacity="0.5"/><rect x="506" y="73" width="16" height="82" fill="#aeb8c0" opacity="0.5"/><rect x="528" y="79" width="16" height="76" fill="#aeb8c0" opacity="0.5"/><rect x="550" y="85" width="16" height="70" fill="#aeb8c0" opacity="0.5"/><rect x="572" y="91" width="16" height="64" fill="#aeb8c0" opacity="0.5"/><rect x="594" y="57" width="16" height="98" fill="#aeb8c0" opacity="0.5"/><rect x="616" y="63" width="16" height="92" fill="#aeb8c0" opacity="0.5"/><rect x="638" y="69" width="16" height="86" fill="#aeb8c0" opacity="0.5"/><rect x="660" y="75" width="16" height="80" fill="#aeb8c0" opacity="0.5"/><rect x="682" y="81" width="16" height="74" fill="#aeb8c0" opacity="0.5"/><rect x="704" y="87" width="16" height="68" fill="#aeb8c0" opacity="0.5"/><rect x="726" y="93" width="16" height="62" fill="#aeb8c0" opacity="0.5"/><rect x="748" y="59" width="16" height="96" fill="#aeb8c0" opacity="0.5"/><rect x="770" y="65" width="16" height="90" fill="#aeb8c0" opacity="0.5"/><rect x="792" y="71" width="16" height="84" fill="#aeb8c0" opacity="0.5"/><rect x="814" y="77" width="16" height="78" fill="#aeb8c0" opacity="0.5"/><rect x="836" y="83" width="16" height="72" fill="#aeb8c0" opacity="0.5"/><rect x="858" y="89" width="16" height="66" fill="#aeb8c0" opacity="0.5"/><rect x="880" y="95" width="16" height="60" fill="#aeb8c0" opacity="0.5"/><rect y="230" width="900" height="370" fill="#cfd3d1"/><path d="M0,230 L900,230 L900,300 Q650,250 380,285 Q160,312 0,278 Z" fill="#7fa262" opacity="0.85"/><path d="M0,250 Q200,300 430,270 Q680,238 900,290 L900,320 Q650,275 400,305 Q180,332 0,300 Z" fill="#6b9152" opacity="0.7"/><path d="M900,470 Q520,360 150,470 L150,520 Q520,410 900,520 Z" fill="#8b9199"/><path d="M900,495 Q520,388 150,497" fill="none" stroke="#e8ebee" stroke-width="2" stroke-dasharray="14 12" opacity="0.7"/><path d="M120,300 L560,250 L760,300 L720,360 L300,410 L150,370 Z" fill="#c3c9cf"/><path d="M120,300 L560,250 L760,300 L720,360 L300,410 L150,370 Z" fill="none" stroke="#a7aeb5" stroke-width="2"/><path d="M300,410 L720,360 L720,392 L300,442 Z" fill="#9aa1a8"/><line x1="150" y1="372" x2="170" y2="300" stroke="#b0b7bd" stroke-width="1" opacity="0.6"/><line x1="176" y1="370" x2="196" y2="299" stroke="#b0b7bd" stroke-width="1" opacity="0.6"/><line x1="202" y1="368" x2="222" y2="298" stroke="#b0b7bd" stroke-width="1" opacity="0.6"/><line x1="228" y1="366" x2="248" y2="297" stroke="#b0b7bd" stroke-width="1" opacity="0.6"/><line x1="254" y1="364" x2="274" y2="296" stroke="#b0b7bd" stroke-width="1" opacity="0.6"/><line x1="280" y1="362" x2="300" y2="295" stroke="#b0b7bd" stroke-width="1" opacity="0.6"/><line x1="306" y1="360" x2="326" y2="294" stroke="#b0b7bd" stroke-width="1" opacity="0.6"/><line x1="332" y1="358" x2="352" y2="293" stroke="#b0b7bd" stroke-width="1" opacity="0.6"/><line x1="358" y1="356" x2="378" y2="292" stroke="#b0b7bd" stroke-width="1" opacity="0.6"/><line x1="384" y1="354" x2="404" y2="291" stroke="#b0b7bd" stroke-width="1" opacity="0.6"/><line x1="410" y1="352" x2="430" y2="290" stroke="#b0b7bd" stroke-width="1" opacity="0.6"/><line x1="436" y1="350" x2="456" y2="289" stroke="#b0b7bd" stroke-width="1" opacity="0.6"/><line x1="462" y1="348" x2="482" y2="288" stroke="#b0b7bd" stroke-width="1" opacity="0.6"/><line x1="488" y1="346" x2="508" y2="287" stroke="#b0b7bd" stroke-width="1" opacity="0.6"/><line x1="514" y1="344" x2="534" y2="286" stroke="#b0b7bd" stroke-width="1" opacity="0.6"/><line x1="540" y1="342" x2="560" y2="285" stroke="#b0b7bd" stroke-width="1" opacity="0.6"/><line x1="566" y1="340" x2="586" y2="284" stroke="#b0b7bd" stroke-width="1" opacity="0.6"/><line x1="592" y1="338" x2="612" y2="283" stroke="#b0b7bd" stroke-width="1" opacity="0.6"/><line x1="618" y1="336" x2="638" y2="282" stroke="#b0b7bd" stroke-width="1" opacity="0.6"/><line x1="644" y1="334" x2="664" y2="281" stroke="#b0b7bd" stroke-width="1" opacity="0.6"/><line x1="670" y1="332" x2="690" y2="280" stroke="#b0b7bd" stroke-width="1" opacity="0.6"/><line x1="696" y1="330" x2="716" y2="279" stroke="#b0b7bd" stroke-width="1" opacity="0.6"/><path d="M408,250 A62,46 0 0 1 532,250 Z" fill="#7fa9c9" stroke="#dfeaf2" stroke-width="1.5"/><path d="M428.7,250 A41.3,34.3 0 0 1 428.7,215.7" fill="none" stroke="#dfeaf2" stroke-width="0.8" opacity="0.6"/><path d="M449.3,250 A20.7,43.4 0 0 1 449.3,206.6" fill="none" stroke="#dfeaf2" stroke-width="0.8" opacity="0.6"/><path d="M470.0,250 A0.0,46.0 0 0 1 470.0,204.0" fill="none" stroke="#dfeaf2" stroke-width="0.8" opacity="0.6"/><path d="M490.7,250 A20.7,43.4 0 0 1 490.7,206.6" fill="none" stroke="#dfeaf2" stroke-width="0.8" opacity="0.6"/><path d="M511.3,250 A41.3,34.3 0 0 1 511.3,215.7" fill="none" stroke="#dfeaf2" stroke-width="0.8" opacity="0.6"/><path d="M410.0,238.5 A60.0,18.0 0 0 1 530.0,238.5" fill="none" stroke="#dfeaf2" stroke-width="0.8" opacity="0.5"/><path d="M416.3,227.0 A53.7,16.1 0 0 1 523.7,227.0" fill="none" stroke="#dfeaf2" stroke-width="0.8" opacity="0.5"/><path d="M429.0,215.5 A41.0,12.3 0 0 1 511.0,215.5" fill="none" stroke="#dfeaf2" stroke-width="0.8" opacity="0.5"/><path d="M560,245 A40,30 0 0 1 640,245 Z" fill="#89b0cd" stroke="#e6eff5" stroke-width="1.5"/><path d="M573.3,245 A26.7,22.4 0 0 1 573.3,222.6" fill="none" stroke="#e6eff5" stroke-width="0.8" opacity="0.6"/><path d="M586.7,245 A13.3,28.3 0 0 1 586.7,216.7" fill="none" stroke="#e6eff5" stroke-width="0.8" opacity="0.6"/><path d="M600.0,245 A0.0,30.0 0 0 1 600.0,215.0" fill="none" stroke="#e6eff5" stroke-width="0.8" opacity="0.6"/><path d="M613.3,245 A13.3,28.3 0 0 1 613.3,216.7" fill="none" stroke="#e6eff5" stroke-width="0.8" opacity="0.6"/><path d="M626.7,245 A26.7,22.4 0 0 1 626.7,222.6" fill="none" stroke="#e6eff5" stroke-width="0.8" opacity="0.6"/><path d="M561.3,237.5 A38.7,11.6 0 0 1 638.7,237.5" fill="none" stroke="#e6eff5" stroke-width="0.8" opacity="0.5"/><path d="M565.4,230.0 A34.6,10.4 0 0 1 634.6,230.0" fill="none" stroke="#e6eff5" stroke-width="0.8" opacity="0.5"/><path d="M573.5,222.5 A26.5,7.9 0 0 1 626.5,222.5" fill="none" stroke="#e6eff5" stroke-width="0.8" opacity="0.5"/><path d="M408,250 L532,250 L470,205 Z" fill="none"/><path d="M330,430 L720,378 L760,430 L400,500 Z" fill="#b9bec3"/><line x1="360" y1="498" x2="440" y2="392" stroke="#cfd4d8" stroke-width="1.2" opacity="0.7"/><line x1="400" y1="495" x2="480" y2="390" stroke="#cfd4d8" stroke-width="1.2" opacity="0.7"/><line x1="440" y1="492" x2="520" y2="388" stroke="#cfd4d8" stroke-width="1.2" opacity="0.7"/><line x1="480" y1="489" x2="560" y2="386" stroke="#cfd4d8" stroke-width="1.2" opacity="0.7"/><line x1="520" y1="486" x2="600" y2="384" stroke="#cfd4d8" stroke-width="1.2" opacity="0.7"/><line x1="560" y1="483" x2="640" y2="382" stroke="#cfd4d8" stroke-width="1.2" opacity="0.7"/><line x1="600" y1="480" x2="680" y2="380" stroke="#cfd4d8" stroke-width="1.2" opacity="0.7"/><line x1="640" y1="477" x2="720" y2="378" stroke="#cfd4d8" stroke-width="1.2" opacity="0.7"/><line x1="680" y1="474" x2="760" y2="376" stroke="#cfd4d8" stroke-width="1.2" opacity="0.7"/><rect x="430" y="440" width="2" height="40" fill="#7d848b"/><circle cx="431" cy="440" r="3" fill="#e8ebee"/><rect x="490" y="440" width="2" height="40" fill="#7d848b"/><circle cx="491" cy="440" r="3" fill="#e8ebee"/><rect x="550" y="440" width="2" height="40" fill="#7d848b"/><circle cx="551" cy="440" r="3" fill="#e8ebee"/><rect x="610" y="440" width="2" height="40" fill="#7d848b"/><circle cx="611" cy="440" r="3" fill="#e8ebee"/><rect x="670" y="440" width="2" height="40" fill="#7d848b"/><circle cx="671" cy="440" r="3" fill="#e8ebee"/><rect x="730" y="440" width="2" height="40" fill="#7d848b"/><circle cx="731" cy="440" r="3" fill="#e8ebee"/><rect x="360" y="452" width="11" height="6" rx="1.5" fill="#c9ccd1"/><rect x="390" y="452" width="11" height="6" rx="1.5" fill="#8a8f98"/><rect x="420" y="452" width="11" height="6" rx="1.5" fill="#3a4048"/><rect x="450" y="452" width="11" height="6" rx="1.5" fill="#b23b3b"/><rect x="480" y="452" width="11" height="6" rx="1.5" fill="#2f5d8a"/><rect x="510" y="452" width="11" height="6" rx="1.5" fill="#d9dde2"/><rect x="540" y="452" width="11" height="6" rx="1.5" fill="#5a6068"/><rect x="570" y="452" width="11" height="6" rx="1.5" fill="#c9ccd1"/><rect x="600" y="452" width="11" height="6" rx="1.5" fill="#8a8f98"/><rect x="368" y="466" width="11" height="6" rx="1.5" fill="#3a4048"/><rect x="398" y="466" width="11" height="6" rx="1.5" fill="#b23b3b"/><rect x="428" y="466" width="11" height="6" rx="1.5" fill="#2f5d8a"/><rect x="458" y="466" width="11" height="6" rx="1.5" fill="#d9dde2"/><rect x="488" y="466" width="11" height="6" rx="1.5" fill="#5a6068"/><rect x="518" y="466" width="11" height="6" rx="1.5" fill="#c9ccd1"/><rect x="548" y="466" width="11" height="6" rx="1.5" fill="#8a8f98"/><rect x="578" y="466" width="11" height="6" rx="1.5" fill="#3a4048"/><rect x="608" y="466" width="11" height="6" rx="1.5" fill="#b23b3b"/><rect x="376" y="480" width="11" height="6" rx="1.5" fill="#2f5d8a"/><rect x="406" y="480" width="11" height="6" rx="1.5" fill="#d9dde2"/><rect x="436" y="480" width="11" height="6" rx="1.5" fill="#5a6068"/><rect x="466" y="480" width="11" height="6" rx="1.5" fill="#c9ccd1"/><rect x="496" y="480" width="11" height="6" rx="1.5" fill="#8a8f98"/><rect x="526" y="480" width="11" height="6" rx="1.5" fill="#3a4048"/><rect x="556" y="480" width="11" height="6" rx="1.5" fill="#b23b3b"/><rect x="586" y="480" width="11" height="6" rx="1.5" fill="#2f5d8a"/><rect x="616" y="480" width="11" height="6" rx="1.5" fill="#d9dde2"/><rect x="384" y="494" width="11" height="6" rx="1.5" fill="#5a6068"/><rect x="414" y="494" width="11" height="6" rx="1.5" fill="#c9ccd1"/><rect x="444" y="494" width="11" height="6" rx="1.5" fill="#8a8f98"/><rect x="474" y="494" width="11" height="6" rx="1.5" fill="#3a4048"/><rect x="504" y="494" width="11" height="6" rx="1.5" fill="#b23b3b"/><rect x="534" y="494" width="11" height="6" rx="1.5" fill="#2f5d8a"/><rect x="564" y="494" width="11" height="6" rx="1.5" fill="#d9dde2"/><rect x="594" y="494" width="11" height="6" rx="1.5" fill="#5a6068"/><rect x="624" y="494" width="11" height="6" rx="1.5" fill="#c9ccd1"/><path d="M60,360 L230,330 L300,360 L300,470 L120,505 L60,470 Z" fill="#2f6fa6"/><path d="M60,360 L230,330 L300,360 L300,470 L120,505 L60,470 Z" fill="none" stroke="#24567f" stroke-width="2"/><rect x="95" y="372" width="150" height="52" rx="4" fill="#bfe0f2" opacity="0.85" transform="skewY(-9)"/><circle cx="250" cy="452" r="20" fill="#e9eef2" opacity="0.9"/><path d="M250,436 A16,16 0 0 1 250,468" fill="none" stroke="#2f6fa6" stroke-width="4"/><g transform="translate(60,250) scale(0.9)"><circle cx="0" cy="0" r="9" fill="#3f7a3f"/><circle cx="-5" cy="2" r="6" fill="#356b35"/><circle cx="5" cy="2" r="6" fill="#4a874a"/></g><g transform="translate(130,260) scale(0.9)"><circle cx="0" cy="0" r="9" fill="#3f7a3f"/><circle cx="-5" cy="2" r="6" fill="#356b35"/><circle cx="5" cy="2" r="6" fill="#4a874a"/></g><g transform="translate(200,250) scale(0.9)"><circle cx="0" cy="0" r="9" fill="#3f7a3f"/><circle cx="-5" cy="2" r="6" fill="#356b35"/><circle cx="5" cy="2" r="6" fill="#4a874a"/></g><g transform="translate(270,260) scale(0.9)"><circle cx="0" cy="0" r="9" fill="#3f7a3f"/><circle cx="-5" cy="2" r="6" fill="#356b35"/><circle cx="5" cy="2" r="6" fill="#4a874a"/></g><g transform="translate(830,260) scale(0.9)"><circle cx="0" cy="0" r="9" fill="#3f7a3f"/><circle cx="-5" cy="2" r="6" fill="#356b35"/><circle cx="5" cy="2" r="6" fill="#4a874a"/></g><rect x="150" y="545" width="11" height="6" rx="1.5" fill="#c9ccd1"/><rect x="202" y="545" width="11" height="6" rx="1.5" fill="#8a8f98"/><rect x="254" y="545" width="11" height="6" rx="1.5" fill="#3a4048"/><rect x="306" y="545" width="11" height="6" rx="1.5" fill="#b23b3b"/><rect x="358" y="545" width="11" height="6" rx="1.5" fill="#2f5d8a"/><rect x="410" y="545" width="11" height="6" rx="1.5" fill="#d9dde2"/><rect x="462" y="545" width="11" height="6" rx="1.5" fill="#5a6068"/><rect x="514" y="545" width="11" height="6" rx="1.5" fill="#c9ccd1"/><rect x="566" y="545" width="11" height="6" rx="1.5" fill="#8a8f98"/><rect x="618" y="545" width="11" height="6" rx="1.5" fill="#3a4048"/><rect x="670" y="545" width="11" height="6" rx="1.5" fill="#b23b3b"/><rect x="722" y="545" width="11" height="6" rx="1.5" fill="#2f5d8a"/><rect x="774" y="545" width="11" height="6" rx="1.5" fill="#d9dde2"/><rect x="826" y="545" width="11" height="6" rx="1.5" fill="#5a6068"/><rect x="150" y="561" width="11" height="6" rx="1.5" fill="#c9ccd1"/><rect x="202" y="561" width="11" height="6" rx="1.5" fill="#8a8f98"/><rect x="254" y="561" width="11" height="6" rx="1.5" fill="#3a4048"/><rect x="306" y="561" width="11" height="6" rx="1.5" fill="#b23b3b"/><rect x="358" y="561" width="11" height="6" rx="1.5" fill="#2f5d8a"/><rect x="410" y="561" width="11" height="6" rx="1.5" fill="#d9dde2"/><rect x="462" y="561" width="11" height="6" rx="1.5" fill="#5a6068"/><rect x="514" y="561" width="11" height="6" rx="1.5" fill="#c9ccd1"/><rect x="566" y="561" width="11" height="6" rx="1.5" fill="#8a8f98"/><rect x="618" y="561" width="11" height="6" rx="1.5" fill="#3a4048"/><rect x="670" y="561" width="11" height="6" rx="1.5" fill="#b23b3b"/><rect x="722" y="561" width="11" height="6" rx="1.5" fill="#2f5d8a"/><rect x="774" y="561" width="11" height="6" rx="1.5" fill="#d9dde2"/><rect x="826" y="561" width="11" height="6" rx="1.5" fill="#5a6068"/><rect x="150" y="577" width="11" height="6" rx="1.5" fill="#c9ccd1"/><rect x="202" y="577" width="11" height="6" rx="1.5" fill="#8a8f98"/><rect x="254" y="577" width="11" height="6" rx="1.5" fill="#3a4048"/><rect x="306" y="577" width="11" height="6" rx="1.5" fill="#b23b3b"/><rect x="358" y="577" width="11" height="6" rx="1.5" fill="#2f5d8a"/><rect x="410" y="577" width="11" height="6" rx="1.5" fill="#d9dde2"/><rect x="462" y="577" width="11" height="6" rx="1.5" fill="#5a6068"/><rect x="514" y="577" width="11" height="6" rx="1.5" fill="#c9ccd1"/><rect x="566" y="577" width="11" height="6" rx="1.5" fill="#8a8f98"/><rect x="618" y="577" width="11" height="6" rx="1.5" fill="#3a4048"/><rect x="670" y="577" width="11" height="6" rx="1.5" fill="#b23b3b"/><rect x="722" y="577" width="11" height="6" rx="1.5" fill="#2f5d8a"/><rect x="774" y="577" width="11" height="6" rx="1.5" fill="#d9dde2"/><rect x="826" y="577" width="11" height="6" rx="1.5" fill="#5a6068"/>
</svg>